<svg width="236" height="468" viewBox="0 0 236 468" fill="none" xmlns="http://www.w3.org/2000/svg">
<path fill-rule="evenodd" clip-rule="evenodd" d="M162.762 233.165C166.515 233.249 164.906 198.234 162.4 191.782C162.049 190.474 161.759 188.688 161.817 187.083C164.917 187.393 164.583 185.271 164.423 182.713C164.476 180.682 164.617 176.491 161.508 178.123C152.188 159.464 162.265 111.231 137.726 106.688C134.769 105.97 131.713 105.227 129.224 103.176C126.589 98.3068 125.248 97.6849 120.882 97.3699C120.074 92.9836 118.563 88.2977 114.061 86.5909C109.939 84.9756 105.141 84.8468 100.843 85.7088C97.2852 86.8692 96.9597 93.4821 96.1694 96.7425C91.3778 95.4719 85.4726 92.7995 82.893 98.8576C81.6435 98.4842 80.4858 98.7266 79.2161 99.1422C68.5749 100.857 58.2504 105.671 54.3036 115.715C51.8656 121.743 53.5958 128.305 54.5101 134.547C55.3629 141.345 53.1143 147.642 52.072 154.181C50.52 163.185 50.2393 170.407 51.2521 177.099C48.5751 177.708 48.3777 180.142 49.4607 182.69C49.7788 183.553 50.0991 184.462 50.8024 184.949C52.233 185.85 54.082 184.812 55.6367 184.653C55.9601 188.248 56.5864 191.776 57.6225 195.786C57.3224 196.986 56.9783 198.326 56.6692 199.531L56.5649 199.418C53.0154 214.286 42.4586 228.728 45.7397 244.53C45.9326 245.056 46.2987 244.947 46.5798 244.937C48.2085 245.557 49.7046 245.164 51.3471 245.227C55.2429 245.23 59.0069 245.729 62.4985 246.163C63.1368 250.332 65.2118 257.159 68.9125 258.748C68.9748 258.77 70.0717 258.541 70.1634 258.534C60.3119 298.48 42.5865 335.417 35.5456 376.168C35.5038 376.665 36.313 376.402 36.5785 376.462C36.5421 377.593 37.2728 377.865 38.2958 378.267C36.9775 381.023 35.7899 383.776 34.4775 386.539C33.8689 387.907 32.8771 389.258 32.6964 390.72C31.2435 391.649 30.2649 393.464 30.2908 395.158C26.3728 396.814 27.4377 404.993 26.5438 409.045C25.6399 415.08 21.3407 419.295 18.3929 424.243C17.7922 425.236 17.1525 426.538 17.1241 427.785C15.2967 428.642 14.6153 430.514 14.7362 433.664C14.7297 437.349 15.7692 438.753 18.5724 438.842C26.1862 439.602 35.071 439.293 42.729 438.427C48.4578 437.699 53.5343 438.303 52.2534 431.42C51.9898 429.753 52.4962 427.509 51.5099 426.161C50.9017 422.146 51.2556 418.099 52.5668 414.133C53.364 410.794 54.7108 403.895 54.1527 399.413C53.8946 397.34 49.6631 396.2 48.9183 396.099C49.1552 394.538 49.0509 391.812 48.2113 390.727C49.753 390.512 50.1405 390.105 50.4616 388.392C51.2289 385.619 51.331 382.609 53.2312 380.272C56.6486 380.316 60.0547 379.449 63.4703 379.343L63.6403 378.951C65.6605 378.925 67.6694 378.568 69.5869 377.868C70.0122 378.069 70.5561 378.242 70.7951 377.599L71.9357 374.031C85.214 331.776 99.9322 289.418 114.283 247.471C115.121 245.432 116.128 243.265 117.438 241.447C117.882 267.112 123.259 292.75 123.72 318.403C124.344 336.051 124.184 353.513 125.844 371.223C126.271 374.971 126.725 374.846 127.284 374.617C127.509 374.652 128.036 374.764 128.265 374.812C127.891 378.537 127.46 384.583 125.863 388.392C122.332 388.937 122.965 391.646 123.748 393.892C122.906 394.611 123.025 396.288 123.275 397.216C119.953 397.22 119.229 399.922 119.458 401.627C119.774 404.479 119.597 408.916 121.5 411.351C122.62 414.457 124.444 417.388 125.156 420.734C125.604 423.195 125.431 426.781 125.863 429.223C124.777 429.725 125.237 430.512 125.054 432.034C124.113 439.001 127.424 437.817 133.276 438.297C136.784 439.071 163.491 440.613 162.337 435.977C162.534 434.089 161.656 433.26 161.28 431.402C161.111 430.908 157.784 425.2 155.799 423.038C149.143 416.784 149.434 408.388 149.644 398.716C149.253 396.095 147.237 393.585 144.664 393.867C145.402 391.068 144.033 388.633 141.171 387.824C141.457 384.654 141.758 380.347 142.805 377.605L141.819 376.602L143.138 376.76L143.576 375.657L144.054 376.865C146.319 376.865 148.874 376.363 151.044 376.127C151.39 376.146 151.236 375.675 151.292 375.494C153.341 375.07 153.566 373.981 153.203 371.387C153.681 329.27 153.474 287.548 152.821 245.353C156.023 245.496 159.145 244.328 162.292 243.55C163.41 244.252 163.726 241.753 163.596 241.214C163.418 238.422 163.073 235.7 162.762 233.165Z" fill="white"/>
<path fill-rule="evenodd" clip-rule="evenodd" d="M97.0079 90.8696C97.4838 91.2453 97.434 92.2868 97.4809 92.8699L97.4841 92.9081C97.6339 94.6692 97.4314 96.4385 97.0018 98.1484L96.9655 98.2907C96.7493 99.1298 96.5579 100.179 95.8846 100.766C95.1554 101.403 93.997 100.991 93.9706 99.9643C93.9575 99.4872 94.1167 99.0278 94.3183 98.5803C92.9056 99.1253 91.4929 99.6645 90.0743 100.19C89.1681 107.684 99.6365 116.858 105.697 120.069C114.523 124.955 121.95 117.472 123.08 108.675C123.269 107.507 123.397 106.306 123.421 105.121C123.442 104.131 123.24 102.75 123.904 101.904C123.434 101.893 123.017 101.959 122.557 102.031L122.579 102.069C122.839 102.535 123.208 103.695 122.383 103.783C120.601 103.595 119.772 100.472 119.338 98.9745C119.056 97.9548 118.666 93.7227 119.528 93.2242C119.788 94.2294 119.686 95.321 120.002 96.3291C120.72 96.6186 122.089 96.6969 122.406 96.7502C126.108 96.7931 128.207 99.4504 129.708 102.561C134.107 106.171 140.43 105.551 145.18 108.524C159.715 119.06 154.968 160.074 162.208 177.523C163.657 176.923 165.134 178.124 165.328 179.589C165.528 180.716 165.468 181.923 165.484 183.065L165.491 183.207C165.61 185.543 166.013 188.168 162.859 188.219C162.864 189.522 163.109 190.784 163.424 192.043C165.171 199.661 165.933 207.507 166.105 215.317L166.114 215.89C166.171 219.995 166.221 232.693 163.861 234.196L163.971 235.09C164.244 237.327 164.502 239.57 164.646 241.818C164.872 242.985 164.101 245.781 162.529 245.041C159.645 245.754 156.801 246.806 153.804 246.812C154.53 270.965 154.17 295.143 154.277 319.307C154.045 337.118 155.008 355.077 154.167 372.82L154.197 373.071C154.435 375.063 154.506 376.795 152.203 377.478C152.17 377.965 151.795 378.225 151.35 378.283C150.088 378.452 148.825 378.613 147.562 378.769C146.385 378.856 145.125 379.149 143.952 379.009C144.065 379.124 143.757 379.142 143.724 379.058C142.654 381.742 142.344 384.668 142.079 387.531C144.675 388.52 146.092 390.746 145.668 393.537C148.288 393.643 150.201 396.554 150.568 399.007C150.804 400.7 150.615 402.381 150.539 404.076C150.177 409.871 151.029 416.115 154.77 420.737L154.926 420.922C157.332 423.751 160.383 426.343 161.42 430.041C161.708 430.176 161.945 430.436 162.048 430.842L162.721 433.48V433.48L163.055 434.799C163.3 435.761 163.517 436.745 163.386 437.74L163.372 437.837C162.717 444.142 136.863 441.103 131.817 440.65C129.789 440.332 127.563 440.505 125.737 439.431C123.497 437.953 123.217 434.954 123.601 432.498L123.633 432.268C123.789 431.169 124.017 430.018 125.059 429.403C124.708 427.127 124.844 424.799 124.427 422.532C123.796 419.324 121.889 416.54 120.916 413.46C119.496 411.882 119.448 409.42 119.151 407.401C118.926 405.443 118.742 403.471 118.666 401.5C118.46 398.895 119.591 396.747 122.33 396.407C122.203 395.913 122.551 395.487 122.897 395.171C122.08 392.27 121.855 388.289 125.398 387.299C126.74 383.972 127.13 380.366 127.487 376.817C127.445 376.808 127.402 376.801 127.36 376.794C125.595 377.528 125.228 374.047 125.11 372.684C123.44 355.023 123.593 337.258 122.966 319.543L122.905 318.262C122.354 306.59 122.027 294.815 120.008 283.299C117.977 270.463 117.445 257.418 116.751 244.447C115.933 245.718 115.493 247.177 114.831 248.531C106.242 273.765 97.4282 298.923 88.9363 324.191C82.7814 342.486 76.9011 360.878 71.0034 379.257C70.7024 380.198 69.7543 380.393 69.0604 380.092C67.294 380.705 65.44 381.053 63.5746 381.113C63.4621 381.371 63.2313 381.56 62.8938 381.523C61.896 381.414 60.7477 381.726 59.7499 381.842C57.4667 382.068 55.2504 382.418 52.9463 382.451C51.519 384.256 51.4292 386.702 50.7712 388.85C50.3924 389.945 50.4518 392.4 49.1436 392.708C49.6125 393.431 49.6739 394.298 49.5979 395.191C50.0048 395.284 50.4175 395.459 50.8003 395.637C51.1731 395.826 51.6654 395.81 51.9224 396.19C59.2295 397.514 53.8895 411.389 52.6194 415.978C51.3728 419.729 50.9824 423.648 51.5513 427.564C52.4209 428.765 52.1295 430.551 52.2626 431.975C52.3328 433.245 52.4613 434.535 52.4498 435.807C52.3079 441.09 45.7849 440.23 42.1048 440.916C39.8068 441.183 37.4985 441.369 35.1903 441.514C29.336 441.878 23.4489 441.906 17.6067 441.34C13.8346 441.22 13.0235 438.76 13.0295 435.394L13.0237 435.255C12.9387 432.971 13.3071 430.213 15.4765 429.025C15.5846 427.818 16.1969 426.6 16.822 425.545C19.729 420.658 24.0935 416.375 24.9519 410.51C25.794 406.671 24.8399 398.22 28.7432 396.218C28.8336 394.489 29.8957 392.727 31.2107 391.792C31.4645 390.352 32.4206 389.029 33.012 387.705C34.2185 385.179 35.3345 382.612 36.5345 380.083C35.9061 379.817 35.2385 379.328 35.1508 378.634C34.5475 378.642 33.9514 378.252 34.0244 377.517C34.2376 375.386 34.7039 373.29 35.1443 371.196L35.1992 370.934C43.0347 333.06 59.2152 297.644 68.682 260.255C67.4082 260.486 66.2174 259.029 65.5132 258.081C63.2386 255.018 61.8951 251.313 61.3043 247.553L60.2351 247.421C56.6694 246.983 53.0861 246.6 49.4907 246.703L48.6241 246.732C47.6614 246.761 46.6971 246.754 45.782 246.407C45.1435 246.466 44.4788 246.124 44.3212 245.407C41.6581 232.136 48.2039 219.542 52.8923 207.55C53.9968 204.601 54.7827 201.61 55.5323 198.557C55.557 198.458 55.7119 198.479 55.7075 198.581C55.5614 201.975 54.7199 205.398 53.8651 208.669C51.0585 219.763 45.2115 230.643 46.641 242.388C51.0847 238.888 56.3624 236.458 61.9062 235.429C62.2262 234.039 62.5797 232.66 62.8456 231.261C62.5841 229.11 62.4058 226.949 62.1779 224.788C61.4971 218.324 60.4571 211.876 59.0707 205.526C56.9199 199.136 55.0422 192.66 54.3708 185.923L54.2485 185.947C52.7574 186.25 51.1144 186.907 49.731 185.957C48.8528 185.348 48.473 184.34 48.1181 183.371C47.1048 181.021 46.9174 177.933 49.7849 176.951C48.7159 169.482 49.4106 161.684 50.7024 154.284C51.7371 147.798 54.0067 141.408 53.157 134.769C52.2137 128.388 50.4552 121.705 52.9975 115.46C57.1756 105.036 67.7563 100.091 78.1619 98.499L78.3305 98.4495C79.6178 98.0684 80.79 97.6667 82.1313 97.9554C85.2949 92.0852 90.4257 94.4726 95.4359 95.7811C95.7741 94.7857 96.0561 93.7673 96.3212 92.7499C96.4863 92.2315 96.4318 91.0357 97.0079 90.8696ZM126.006 432.251L125.993 432.507C125.861 435.256 126.01 437.611 129.418 437.593C131.763 437.843 134.108 438.087 136.457 438.299L137.338 438.377C144.308 438.998 151.363 439.303 158.32 438.369L158.61 438.33C159.191 438.247 160.268 438.263 160.728 437.833C161.283 437.087 160.641 435.663 160.506 434.796C149.65 434.67 138.78 434.27 127.917 434.408C126.775 434.414 126.259 433.437 126.364 432.548C126.236 432.461 126.115 432.361 126.006 432.251ZM15.7884 430.873C15.2547 432.75 15.3862 434.524 15.6877 436.403C15.8385 438.371 16.7748 438.497 18.4692 438.544C25.0837 439.154 31.7462 439.026 38.3626 438.514C41.9087 438.132 45.553 438.146 49.0332 437.362C50.6935 436.626 49.735 434.312 49.7914 432.894C41.9756 437.93 30.1551 437.291 21.6321 434.377L21.4955 434.319C19.4794 433.472 16.902 432.938 15.7884 430.873ZM28.7348 396.983C27.7998 398.038 27.8174 401.12 27.7751 401.976C27.6741 404.039 27.6902 406.107 27.6008 408.171C27.6667 416.861 22.6485 421.195 18.9219 428.181C17.9026 429.877 19.3854 430.118 20.5916 430.667C28.4018 434.302 37.6403 434.858 45.7997 432.075C49.9011 430.883 49.0056 428.123 48.6574 424.747C48.3145 417.848 51.9446 411.633 53.0184 404.959L53.0573 404.725C53.3785 402.724 53.8887 397.817 50.7991 398.88C50.1198 399.298 49.4814 398.773 49.401 398.132C49.3202 398.145 49.2371 398.153 49.157 398.154C48.7962 400.385 48.4222 402.612 48.0628 404.843C48.3652 405.035 48.6486 405.252 48.8999 405.5C49.2053 405.803 48.992 406.438 48.5318 406.4C48.2952 406.379 48.0614 406.343 47.8291 406.299C47.6448 408.238 44.5657 407.15 45.4551 405.596C41.0276 404.066 36.1498 404.188 31.6537 405.361L31.6351 405.369C31.2871 405.507 28.7844 406.009 29.5894 406.4C29.925 406.44 29.1609 406.879 29.0269 406.2C28.9837 405.348 30.9291 404.929 31.5251 404.575C30.0218 402.424 28.9947 399.635 28.7348 396.983ZM142.161 390.17C137.991 387.912 132.865 388.75 128.341 389.15L128.151 389.171C127 389.295 125.395 389.372 124.867 390.557C124.102 392.457 125.37 396.707 125.768 398.82L125.949 399.559C126.262 400.849 126.553 402.132 126.661 403.468C126.664 403.512 126.621 403.543 126.582 403.543C124.997 401.85 124.285 399.573 123.545 397.401C123.229 397.581 122.921 397.776 122.63 397.99C121.494 401.893 121.114 406.049 122.014 410.03L122.046 410.171C123.157 415.091 126.615 419.115 126.944 424.257C127.164 426.335 127.115 428.466 127.713 430.484C128.053 430.559 128.349 430.81 128.483 431.125L130.432 431.128C139.857 431.144 149.284 431.229 158.702 431.617C158.398 428.969 156.06 426.619 154.414 424.803C149.362 419.629 147.177 412.197 148.009 405.033C148.447 401.45 150.447 395.819 145.555 394.495C145.198 397.416 144.715 400.327 144.448 403.259C145.371 403.705 145.314 404.879 144.186 404.856C143.68 406.559 141.982 405.871 142.166 404.264C135.957 401.97 132.395 401.202 126.347 404.657C126.177 404.632 126.811 403.953 126.892 403.832C128.803 401.771 131.739 400.802 134.493 400.767C137.223 400.767 139.79 401.796 142.366 402.592C142.753 399.825 143.014 397.041 143.32 394.265L143.387 393.67C143.548 392.212 143.489 391.008 142.161 390.17ZM42.3852 425.901C43.2939 425.699 44.1295 425.391 45.0528 425.6C48.3019 428.041 35.0261 428.729 33.8957 428.555C31.0182 428.471 28.1393 428.106 25.37 427.292L25.1569 427.229C24.7917 427.127 22.1546 426.383 22.6672 426.047C26.4129 426.379 30.0798 427.067 33.8957 426.888C35.7993 426.848 37.7102 426.713 39.5934 426.427C40.5298 426.284 41.4619 426.109 42.3852 425.901ZM130.158 422.877C129.563 421.986 132.463 423.17 132.84 423.18C135.241 423.772 137.685 424.221 140.152 424.408C141.806 424.533 143.477 424.56 145.134 424.478C146.36 424.436 147.574 424.255 148.793 424.13L148.837 424.128C149.561 424.103 151.013 424.552 150.118 425.414C148.727 426.492 146.669 426.164 145.002 426.322C139.939 426.306 134.578 425.49 130.158 422.877ZM34.9772 416.397C36.4368 416.132 44.4702 416.046 43.6695 418.512C43.4752 418.98 43.0311 419.135 42.5636 419.062C37.5915 417.852 32.2281 417.22 27.2721 418.887C27.1917 418.915 27.1362 418.784 27.2151 418.749C29.6519 417.527 32.2592 416.673 34.9772 416.397ZM139.255 413.986C140.567 413.887 141.886 413.922 143.199 414.02L143.626 414.054C144.214 414.1 144.82 414.154 145.384 414.325L145.489 414.359C146.21 414.591 147.834 415.829 146.601 416.425C145.277 416.853 144.158 416.344 142.881 416.016C139.322 415.172 135.581 415.458 132.054 416.32L132.551 416.48V416.48C132.582 416.457 132.621 416.509 132.592 416.534C132.236 416.846 131.746 416.735 131.493 416.348C131.45 416.282 131.477 416.175 131.547 416.138C133.938 414.884 136.573 414.19 139.255 413.986ZM28.4018 413.672C32.4214 411.892 37.0785 411.695 41.3893 412.211L41.6964 412.249C43.0412 412.407 44.7952 412.479 45.5648 413.732C45.8306 414.166 45.556 414.664 45.1265 414.821C43.8613 415.283 42.3741 414.357 41.1586 414.013C37.5647 413.029 33.7261 412.925 30.0716 413.605C30.0972 413.74 29.4919 413.681 29.3602 413.729C29.1949 413.72 28.0987 414.082 28.4018 413.672ZM129.765 410.893C133.272 409.188 137.326 408.781 141.112 409.661L141.27 409.706C142.947 410.177 145.648 410.733 146.249 412.509C146.379 412.91 146.097 413.45 145.675 413.531C144.245 413.805 142.946 412.76 141.652 412.258C137.843 410.827 133.533 410.484 129.594 411.537C129.568 411.692 129.542 411.846 129.514 412.001C129.581 411.957 129.651 412.056 129.597 412.111C128.969 412.551 128.315 411.44 129.765 410.893ZM37.4366 407.895C40.2739 407.706 43.1351 408.067 45.8743 408.815L46.3894 408.957C47.138 409.167 48.1078 409.498 48.2167 410.307C48.2591 410.629 48.1787 410.85 47.9172 411.05C46.9637 411.763 44.8896 410.268 43.7041 410.093C39.3997 408.799 34.7794 408.818 30.4193 409.807L30.2707 409.842L30.3759 410.59C30.4793 410.948 29.5208 410.104 29.885 409.72C32.1867 408.548 34.8725 408.106 37.4366 407.895ZM132.441 406.556C134.718 406.145 137.067 406.067 139.37 406.274L139.642 406.299C141.017 406.421 145.471 406.598 144.418 408.922C144.241 409.311 143.728 409.361 143.397 409.193C142.283 408.628 141.066 408.425 139.838 408.239C135.5 407.635 131.068 407.882 126.833 409.051C126.925 409.196 126.735 409.367 126.555 409.401C126.108 409.484 126.108 408.95 126.299 408.667C126.527 408.332 126.982 408.209 127.332 408.061C128.963 407.35 130.693 406.87 132.441 406.556ZM46.1933 393.621L45.934 393.559C41.5884 392.537 31.9536 390.703 30.9558 396.691C30.6017 399.328 31.7698 401.9 31.6835 404.512C36.1897 402.679 41.1728 402.698 45.8545 403.909C46.2692 401.199 46.6652 398.485 47.0888 395.776L47.1573 395.452C47.3458 394.538 47.41 393.824 46.1933 393.621ZM36.5136 394.711C37.4605 393.899 39.0397 393.911 39.9687 394.797C40.818 394.975 41.4173 395.877 41.431 396.651C42.7225 398.921 41.165 402.059 38.6991 402.626C33.1311 403.8 30.6418 396.149 36.5136 394.711ZM132.985 391.088C137.644 390.255 139.336 396.167 135.513 398.565C130.111 401.275 126.512 392.754 132.985 391.088ZM38.8187 377.956C38.8872 378.408 38.6651 378.73 38.3994 379.035C37.4442 382.951 36.0067 386.596 34.5893 390.351C39.2004 389.586 43.557 390.254 47.637 391.506C47.6858 390.36 48.2077 389.173 48.5703 388.092C49.2765 386.042 50.1299 384.043 51.1143 382.113L51.238 381.872C51.5915 381.185 51.9319 380.467 52.3498 379.81C47.8368 379.194 43.3239 378.638 38.8187 377.956ZM129.709 377.122L129.589 377.667C129.071 380.031 128.579 382.417 127.808 384.714L127.798 384.761C127.68 385.341 127.414 388.025 127.247 386.131C127.119 386.416 126.981 386.698 126.835 386.975L127.633 386.88C131.897 386.374 136.364 385.936 140.556 387.009C140.132 383.722 140.756 380.581 141.668 377.473C137.673 377.381 133.713 377.411 129.709 377.122ZM54.0493 381.208C53.9033 381.345 53.7601 381.485 53.6242 381.632C53.8083 381.584 53.9925 381.539 54.1633 381.499C54.1563 381.391 54.0802 381.309 54.0493 381.208ZM144.083 378.193L143.996 378.397C143.982 378.431 143.968 378.465 143.953 378.498C144.021 378.458 144.095 378.42 144.176 378.386C144.139 378.327 144.108 378.263 144.083 378.193ZM71.1005 183.667C70.6915 183.865 70.2649 183.915 69.7009 183.939C65.1192 184.129 60.552 184.66 56.053 185.565C56.3013 189.207 57.4087 192.734 58.4625 196.205L58.681 196.966C62.2416 209.404 65.3495 222.401 64.7236 235.41C64.7586 235.423 64.7922 235.441 64.8244 235.457C64.7675 235.616 64.7267 235.78 64.6695 235.938L64.633 236.032L64.4192 236.563C64.301 236.858 64.1862 237.154 64.0866 237.457C63.9117 237.52 63.6968 237.566 63.492 237.596C62.4526 244.483 63.4409 252.206 68.1246 257.592C66.1808 253.524 65.4345 248.466 66.2358 244.024C66.6707 244.496 66.7017 245.582 66.8682 246.287C67.3255 248.698 67.6464 251.143 68.3334 253.503L68.4079 253.74C69.178 256.157 70.4668 259.274 72.7004 260.523C73.1217 260.649 73.7734 260.492 73.9727 261.008C74.0879 261.47 73.8733 262.04 73.3999 262.184L73.3664 262.193C72.0063 262.579 70.8522 261.554 69.98 260.472L69.9365 261.037C69.8527 262.106 69.7358 263.132 69.1151 264.011C69.0421 264.317 68.9705 264.624 68.8963 264.93C67.2162 275.3 64.6891 286.019 60.0881 295.378L59.5529 296.992C50.806 323.35 41.7469 349.69 36.4751 377.037C42.0144 376.454 47.6001 376.736 53.1282 377.285C58.3412 377.826 63.8551 379.268 68.8492 376.966C82.3797 335.618 96.3371 294.394 111.634 253.676C113.478 247.213 116.94 240.981 118.653 234.355L118.761 234.005C119.163 232.677 119.352 231.815 119.057 230.331L119.044 230.15C118.983 229.222 118.962 227.813 120.021 227.556C120.201 227.512 120.436 227.546 120.56 227.701C121.215 228.541 120.602 229.611 120.791 230.587C121.341 234.32 119.868 237.84 118.147 241.058C118.259 241.194 118.337 241.361 118.35 241.544C118.5 243.528 118.481 245.533 118.568 247.521C118.813 253.237 119.169 258.949 119.621 264.653C121.036 275.099 123.041 285.437 124.131 295.929C126.612 320.367 126.166 344.993 127.967 369.48C127.982 371.631 128.656 373.867 127.973 375.954C128.404 375.671 129.016 375.734 129.394 376.077C136.739 375.568 144.094 375.818 151.437 375.381C151.444 375.05 151.469 374.742 151.482 374.504C151.277 374.015 151.618 373.472 151.608 372.953C150.712 367.871 151.449 362.41 151.265 357.214C151.273 352.297 151.298 347.381 151.332 342.463C151.609 311.735 151.236 281 151.798 250.276C151.841 248.765 151.91 247.258 152.008 245.751C151.604 245.301 151.873 244.663 151.874 244.122L151.897 243.641C152.02 241.213 152.16 238.982 151.213 236.589C151.235 236.303 151.301 236.036 151.45 235.817C147.021 233.74 142.397 232.167 137.825 230.455C137.054 230.646 136.088 230.166 135.926 229.336C134.204 220.494 132.847 211.595 131.673 202.666C123.997 207.709 114.636 208.507 105.919 210.55L104.269 210.977C100.2 212.038 95.9322 213.273 92.8376 216.164C92.5248 220.728 94.849 233.881 87.8646 233.537C85.5765 234.236 83.2246 234.796 80.8829 235.098C83.6092 240.275 88.5825 247.173 84.6506 252.906C84.0803 253.511 83.3136 252.898 82.7923 252.522C82.8569 255.874 82.9464 259.209 82.9501 262.558C82.9501 263.004 82.4899 263.407 82.0458 263.255C79.5273 262.387 79.216 259.37 78.8259 257.094C78.4767 255.062 78.1261 253.029 77.7813 250.995C77.5616 254.645 78.4395 258.402 77.7245 262.01C77.0381 264.073 74.9053 263.459 74.2661 261.729L74.2472 261.676C72.9829 258.169 72.3671 254.423 72.1115 250.708L72.0979 250.491C72.0242 249.364 71.9045 248.171 72.1832 247.079C72.7486 248.143 72.6079 249.878 72.8712 251.165C73.3124 253.915 73.909 256.646 74.7471 259.301L74.7689 259.394C75.1477 260.952 76.6314 263.986 76.6142 260.174C76.6709 258.237 76.5045 256.306 76.3993 254.373L76.3847 254.097C76.2474 251.457 76.262 248.793 77.0538 246.248C77.2554 245.596 78.3511 245.473 78.484 246.248C79.016 249.344 79.5242 252.443 80.0326 255.542C80.4032 257.434 80.3879 259.569 81.514 261.202C81.5271 257.638 81.3296 254.084 81.159 250.524L81.1248 250.414C80.9862 249.96 80.8362 249.354 81.1546 248.961C81.2788 248.149 82.465 248.242 82.5659 249.092C82.5878 249.27 82.6038 249.45 82.6214 249.629C83.0144 250.122 83.3796 250.626 83.8442 251.05C86.9461 244.713 76.7969 233.768 75.3958 226.612C71.2691 212.676 73.6416 198.064 74.8419 183.873C73.6007 183.726 72.3493 183.686 71.1005 183.667ZM36.351 377.522C36.3039 377.697 36.2678 377.89 36.1829 378.049C36.2502 378.061 36.3188 378.074 36.3875 378.089C36.4708 377.921 36.5584 377.757 36.6534 377.596C36.5526 377.572 36.4518 377.548 36.351 377.522ZM87.8685 312.254C87.9985 312.231 88.0511 312.412 87.924 312.453C83.6479 313.875 80.0437 316.522 76.4396 319.149C75.9283 319.521 75.4506 318.744 75.8085 318.323C77.3159 316.557 79.1619 315.338 81.217 314.312L81.3381 314.252C83.3939 313.216 85.5994 312.556 87.8685 312.254ZM128.816 309.608C128.766 309.512 128.898 309.438 128.958 309.523C129.91 310.866 131.171 312.116 132.423 313.171C133.691 314.24 135.075 315.085 136.432 316.023C137.164 316.528 136.536 317.605 135.741 317.218C134.195 316.466 132.807 315.224 131.672 313.931C130.502 312.597 129.636 311.17 128.816 309.608ZM102.267 263.062C97.5474 270.996 90.5791 278.985 85.3785 287.121C81.8666 292.337 78.6896 297.776 74.8408 302.757C74.0709 303.806 72.5866 302.93 73.114 301.736C74.5779 298.43 76.2099 295.254 78.1745 292.225L78.8082 291.284C85.6506 281.14 92.9026 270.976 102.267 263.062ZM121.929 250.954C121.888 250.821 122.082 250.763 122.134 250.88L122.139 250.894C125.682 260.614 131.144 269.451 135.923 278.566C136.293 279.312 135.308 280.211 134.719 279.505C131.346 275.458 128.981 270.697 126.883 265.878C124.671 261.102 123.314 256.015 121.929 250.954ZM130.161 103.461C132.331 107.818 133.923 112.43 135.026 117.176C135.366 118.641 133.402 119.54 132.608 118.257L132.585 118.217C131.609 116.588 130.155 115.153 128.315 114.592C127.06 119.854 127.672 125.413 128.323 130.726C129.478 138.127 130.398 145.56 130.535 153.06L130.542 153.462C130.945 179.075 134.706 204.572 138.826 229.649C145.412 230.708 151.441 233.695 157.512 236.32C158.567 236.732 159.645 237.091 160.75 237.339C157.7 208.908 146.099 182.245 142.515 153.918C141.567 146.551 141.523 139.07 142.832 131.745C142.854 131.605 143.052 131.652 143.061 131.776C143.205 134.785 143.719 137.754 144.024 140.747C144.231 139.037 144.71 137.306 145.097 135.668C145.571 134.066 145.746 131.493 147.133 130.448L147.22 130.145V130.145C147.257 130.015 147.45 130.07 147.419 130.2C147.404 130.262 147.39 130.322 147.377 130.384C148.267 130.622 147.435 131.679 147.214 132.185C145.785 136.025 145.359 140.181 144.383 144.138C145.795 156.492 148.339 168.69 151.472 180.697C154.35 179.937 157.238 179.205 160.123 178.462C153.687 157.462 157.45 134.026 147.807 113.974C144.195 107.244 135.297 108.158 130.161 103.461ZM81.261 99.6218C79.9111 99.5494 78.5013 100.284 77.2055 100.536C75.4874 100.87 73.7781 101.134 72.0982 101.647C63.4983 104.009 55.2016 110.461 53.6437 119.757C52.5728 126.139 55.2244 132.358 55.1312 138.723C54.8514 145.029 52.7764 151.089 51.968 157.332C50.9953 163.715 50.6606 170.396 51.4946 176.811C59.2092 174.618 67.2658 174.48 75.1764 175.613C74.5166 165.891 75.3824 156.121 75.8614 146.406C76.2062 140.166 76.7964 133.899 76.5875 127.647C76.5831 127.509 76.8081 127.475 76.8297 127.613C79.2023 140.381 77.8106 153.342 77.571 166.218C77.4188 169.472 77.8208 172.756 77.6583 175.991C81.2548 176.767 81.1248 180.97 80.025 183.74C79.8302 184.406 79.1684 184.291 78.6328 184.21C78.0525 184.821 76.668 184.023 75.8789 184.024C75.2613 200.006 71.5089 217.078 79.1982 232.016C82.4129 232.034 85.5075 230.922 88.6318 230.292L88.8023 230.258L88.8067 230.256C89.2658 229.657 89.4905 228.694 89.5519 227.989C89.9886 215.68 88.622 203.344 89.4216 191.034C90.4007 177.371 93.442 163.791 92.0353 150.035C91.0627 137.741 88.3927 125.669 87.1057 113.411L87.0404 112.777C86.9602 112.021 86.93 111.186 86.5568 110.61C84.3858 112.593 82.5638 114.95 81.2597 117.603C80.5374 118.884 78.6028 118.314 78.573 116.867C78.2949 114.284 78.2537 111.692 78.5355 109.108L78.5612 108.88C78.9105 105.647 79.8855 102.56 81.261 99.6218ZM161.975 188.325C159.178 188.473 156.379 188.784 153.577 188.747L153.859 189.808C157.25 202.533 160.861 215.235 162.99 228.255L163.067 227.034C163.144 225.813 163.218 224.591 163.266 223.367C163.87 211.666 162.948 199.98 161.975 188.325ZM153.794 188.337L153.462 188.321L153.483 188.393V188.393C153.551 188.379 153.62 188.367 153.69 188.355L153.794 188.337ZM162.907 179.742C162.855 179.726 162.766 179.726 162.666 179.731C162.523 180.062 162.234 180.335 161.898 180.425L159.095 181.184C156.759 181.817 154.421 182.446 152.08 183.059C152.473 184.577 152.872 186.096 153.275 187.613C156.468 186.579 160.002 186.814 163.257 186.149C163.217 184.396 163.121 182.634 163.091 180.878C163.084 180.592 163.143 180.131 162.997 179.874C162.905 179.71 162.997 179.771 162.907 179.742ZM55.6782 185.642L55.5904 185.662V185.662C55.6196 185.741 55.6459 185.821 55.6708 185.902C55.6724 185.815 55.6737 185.73 55.6782 185.642ZM76.4595 177.208C70.4454 176.328 64.3292 175.809 58.2636 176.407C55.5199 176.781 52.7348 177.179 50.0459 177.688C49.1109 179.131 50.1454 182.642 51.3096 183.753C51.6587 183.886 52.2592 183.628 52.5937 183.552C55.1039 182.983 57.6387 182.524 60.1861 182.165C60.2621 182.261 60.3731 182.323 60.5105 182.31L61.0958 182.256C64.6093 181.934 68.1539 181.698 71.675 181.899L71.7012 181.92V181.92C74.0768 182.094 76.4442 182.471 78.81 182.743C79.744 180.288 79.583 177.471 76.4595 177.208ZM120.219 97.143C120.451 97.9341 120.73 98.703 121.078 99.4503C121.44 99.3494 121.94 99.4303 122.207 99.66L122.32 99.6394C122.632 99.5799 123.007 99.4888 123.104 99.4783C127.401 98.8804 127.074 104.661 127.089 107.566C127.116 109.022 127.145 110.48 127.189 111.936C128.418 111.515 130.063 112.272 131.138 112.942C130.296 110.126 129.307 107.354 128.204 104.632L127.953 103.995C127.095 101.834 126.134 99.6566 124.318 98.1519C122.914 97.7827 121.555 97.7157 120.219 97.143ZM89.063 95.6929C85.069 94.2605 83.4869 97.5157 82.3791 100.762C81.073 104.357 80.7166 108.316 80.9343 112.185L81.0687 112.006C82.5383 110.036 84.657 106.785 87.336 107.307C87.3099 105.813 87.3637 104.171 87.6487 102.619C87.4821 101.617 87.4398 100.606 87.5553 99.5937C87.6164 98.325 88.9907 98.5175 89.8956 98.3381C90.6787 97.8138 91.6268 97.6025 92.5793 97.9718C93.2981 97.8758 94.0169 97.7842 94.7357 97.6926C94.846 97.4489 94.9351 97.204 95.0278 96.9541C93.0385 96.5406 91.0497 96.1145 89.063 95.6929Z" fill="#2C353E"/>
<path fill-rule="evenodd" clip-rule="evenodd" d="M137.111 64.0003C136.571 55.1549 133.694 45.1263 125.23 40.7834C106.569 33.3093 82.0338 52.1311 80.7348 71.3591C80.282 77.941 83.9438 85.133 90.6354 86.9629C92.1232 88.9301 94.3732 90.1314 96.5939 91.1741C123.045 104.87 140.131 93.7366 137.111 64.0003V64.0003Z" fill="white"/>
<path fill-rule="evenodd" clip-rule="evenodd" d="M143.136 58.498C142.202 55.907 141.214 53.3359 140.175 50.7848C139.164 48.3018 138.25 45.7653 136.994 43.4C129.49 29.2733 115.845 29.2733 108.791 31.1191C105.133 29.5463 98.2822 29.9899 94.4734 31.4092C88.3075 33.7068 80.7911 42.7451 78.2212 46.806C72.5472 55.7719 69.0063 67.7054 72.7752 78.066C73.2678 79.4201 73.8961 80.6742 74.6034 81.8828C74.1578 82.4855 73.645 83.0563 73.0769 83.6172C71.3886 85.2841 69.7003 86.8961 68.2419 88.7762C66.7926 90.6447 65.5911 92.6316 64.6967 94.8223C63.0101 98.9536 62.9289 103.632 65.1586 107.574C67.0985 111.004 70.5351 113.558 74.4068 113.802C74.6055 113.829 74.8046 113.854 75.0045 113.874C75.5175 114.718 76.1431 115.494 76.8569 116.171C79.0442 118.247 84.2581 119.312 87.2319 119.381C87.3844 119.503 87.5383 119.625 87.6922 119.746C89.5118 121.175 91.4212 122.617 93.5102 123.634C94.9251 124.324 96.7804 124.9 98.2566 124.402C98.9264 124.849 100.025 124.755 100.689 124.389C101.781 123.789 102.668 122.708 103.208 121.602C104.518 118.916 104.203 115.976 103.867 113.107C103.496 109.937 103.14 106.766 102.778 103.596C102.494 101.117 102.198 98.5973 101.443 96.2096C101.052 94.9724 100.541 93.7836 99.8797 92.6659C99.8968 92.572 99.8939 92.4781 99.8668 92.39C99.6502 91.6875 99.2028 91.3192 98.6727 90.8414C98.6043 90.7802 98.5359 90.7176 98.469 90.6536C98.2039 90.3522 97.9204 90.072 97.6169 89.8345C97.5 89.7165 97.3846 89.5971 97.2692 89.4776C96.3102 88.4751 95.4039 87.4213 94.5988 86.2922C93.818 85.1972 93.1126 84.0539 92.4415 82.8892C91.7589 81.7046 91.3072 80.3978 90.6261 79.2217C90.5677 79.1207 90.4195 79.1008 90.3368 79.1847C90.126 79.4023 89.9906 79.6441 90.0162 79.8986L89.9108 79.9142C89.8709 79.5303 89.5161 79.2174 89.0345 79.3013C88.3134 79.4265 87.7207 79.4734 87.0965 79.2345C87.2063 78.5078 87.3074 77.7797 87.4072 77.0502C87.5896 75.7078 87.7591 74.3611 87.9045 73.0144C88.2564 73.0983 88.6056 73.2192 88.9475 73.3728C89.4349 73.5903 89.8951 73.8833 90.2884 74.2431C90.676 74.5986 90.9439 75.0778 91.417 75.3253C91.9613 75.6082 92.6182 75.1404 92.4586 74.5261C92.1351 73.2846 90.3041 72.5736 89.1712 72.3389C88.7822 72.2579 88.3847 72.2237 87.9871 72.2323C88.0769 71.3677 88.1567 70.5031 88.2222 69.637C88.2536 69.2275 88.2821 68.8179 88.3092 68.4069C89.1898 68.141 90.1331 68.0614 91.0493 68.1865C91.3514 68.4268 91.6535 68.6643 91.9456 68.9047C92.8732 69.6697 93.7966 70.4391 94.7086 71.2226C94.7912 71.2923 94.8724 71.362 94.9551 71.4331C95.4965 71.8981 96.172 71.4373 96.0808 70.7789C95.337 65.3836 98.6485 61.0919 102.526 57.7671C106.818 54.0854 114.621 53.6567 119.725 47.2794C122.075 47.7569 127.324 49.175 129.49 52.6192C132.522 57.4457 132.126 61.7702 132.357 67.2451C132.588 72.7243 133.175 78.4396 131.928 83.842C130.778 88.8235 127.664 93.0797 122.834 95.0364C122.714 95.0848 122.593 95.1317 122.472 95.1772C119.974 96.1172 117.248 96.3831 114.621 95.8883C111.712 95.3393 109.284 94.0111 106.865 92.3772C106.725 92.2847 106.521 92.4753 106.627 92.6147C109.816 96.8325 116.08 98.2418 121.049 97.1283C121.281 97.0757 121.512 97.0188 121.741 96.9562C120.63 100.146 120.853 103.647 122.301 106.753C123.172 108.621 124.5 110.238 126.117 111.514C127.9 112.919 130.111 114.054 131.348 116.026C132.481 117.833 132.145 119.864 130.205 120.908C129.716 121.172 129.528 122.027 130.013 122.403C130.198 122.545 130.383 122.69 130.573 122.832C131.659 123.65 134.641 125.186 135.124 125.242C139.413 125.75 142.297 122.607 144.145 118.9C146.315 114.549 145.751 109.246 143.36 105.102C141.442 101.777 137.665 98.5006 139.167 94.2927C139.702 92.7896 140.798 91.5083 141.863 90.3507C143.077 89.0325 144.382 87.7982 145.546 86.433C146.703 85.0778 147.729 83.6031 148.302 81.9023C149.138 79.4165 148.722 76.7288 148.094 74.2473C146.747 68.9203 144.999 63.6644 143.136 58.498Z" fill="#2C353E"/>
<path fill-rule="evenodd" clip-rule="evenodd" d="M111.526 78.5658C113.968 78.2699 116.336 79.0162 118.724 79.3924C119.985 79.591 121.247 79.7392 122.523 79.7943C122.779 79.8055 123.036 79.812 123.293 79.8172C123.317 79.5917 123.443 79.3845 123.718 79.2604C124.279 79.0062 124.729 78.8915 125.346 78.9161C125.911 78.9383 126.478 78.9963 127.034 79.0979C128.044 79.2826 129.058 79.7019 129.797 80.4303C131.506 82.1159 131.246 84.8234 129.925 86.6593C127.196 90.453 122.215 90.6291 117.949 90.5796L117.555 90.5745C113.671 90.5191 108.114 91.0971 106.349 86.6867C105.7 85.0649 105.79 83.185 106.585 81.6295C107.533 79.7742 109.528 78.8078 111.526 78.5658ZM123.659 84.8823L123.624 84.8837C121.833 84.9526 120.042 85.001 118.251 85.0326C118.304 85.4919 118.359 85.9512 118.422 86.4095C118.471 86.7701 118.523 87.1303 118.578 87.49C118.601 87.6424 118.686 87.8788 118.662 88.0297L118.653 88.0894V88.0894C118.745 88.1309 118.829 88.1978 118.891 88.2949C118.913 88.3284 118.928 88.3623 118.944 88.396C120.335 88.4069 121.832 88.38 123.25 88.1277L123.253 88.0969V88.0969C123.279 87.9161 123.354 87.7944 123.454 87.7109C123.554 87.1344 123.545 86.52 123.584 85.948C123.608 85.5926 123.634 85.2375 123.659 84.8823ZM116.882 85.057C115.591 85.079 114.3 85.0958 113.009 85.0801L112.424 85.0711V85.0711C112.547 85.7335 112.682 86.3936 112.794 87.0605C112.911 87.7555 112.298 88.1973 111.767 88.1794C111.827 88.1892 111.886 88.1992 111.946 88.2076C113.603 88.4415 115.324 88.3795 117.006 88.3776C116.916 87.8505 116.952 87.2557 116.939 86.8157L116.936 86.7476C116.911 86.1838 116.892 85.6204 116.882 85.057ZM108.114 84.9355C108.159 85.28 108.246 85.6171 108.377 85.9309C108.928 87.2569 110.191 87.8757 111.527 88.1362C111.295 88.0563 111.111 87.8643 111.065 87.5355C110.949 86.7177 110.907 85.8864 110.904 85.0561C109.973 85.0475 109.035 85.0276 108.114 84.9355ZM128.516 84.6523C127.853 84.8085 127.082 84.7369 126.432 84.7664C125.822 84.794 125.212 84.8181 124.603 84.8428C124.631 85.2581 124.659 85.6733 124.69 86.0883C124.729 86.6247 124.733 87.1916 124.836 87.7258C126.063 87.308 127.162 86.6379 127.987 85.5664C128.192 85.2995 128.376 84.9862 128.516 84.6523ZM111.245 80.7414C110.141 81.0023 109.096 81.5533 108.535 82.5614C108.202 83.1597 108.055 83.8687 108.083 84.5674C109.016 84.459 109.965 84.4179 110.91 84.3839C110.913 84.2142 110.917 84.0446 110.922 83.8754L110.937 83.4417C110.962 82.6146 110.975 81.5759 111.245 80.7414ZM116.959 80.8423L116.473 80.7878C115.123 80.6343 113.774 80.4732 112.424 80.5655C112.229 80.579 112.031 80.6002 111.832 80.6293C112.071 81.4885 112.051 82.4977 112.15 83.3483C112.189 83.6771 112.237 84.0033 112.291 84.3282L112.525 84.3173V84.3173C113.974 84.2389 115.424 84.1908 116.873 84.1334C116.873 83.8617 116.875 83.59 116.879 83.3181L116.884 83.0462C116.901 82.3517 116.856 81.5694 116.959 80.8423ZM123.738 80.732C122.324 80.9597 120.863 81.0081 119.475 81.0098C118.92 81.0105 118.365 80.9765 117.811 80.9275C117.847 81.222 117.866 81.5198 117.893 81.8101C117.948 82.3969 118.011 82.9827 118.079 83.5679L118.139 84.0801V84.0801C119.921 83.9994 121.703 83.9123 123.484 83.822L123.735 83.8086V83.8086L123.806 82.8244C123.854 82.1681 123.906 81.512 123.981 80.8587L123.925 80.8385V80.8385C123.859 80.8116 123.797 80.7745 123.738 80.732ZM124.352 80.9763C124.43 81.9042 124.473 82.836 124.53 83.7655L125.705 83.7029C125.9 83.6923 126.096 83.6814 126.292 83.6702C127.053 83.6264 128.03 83.3964 128.783 83.6109C128.84 82.9284 128.645 82.2634 128.027 81.8049C126.944 80.9995 125.564 81.2863 124.352 80.9763ZM120.34 72.6809C122.089 71.6815 126.476 70.66 126.754 73.8006C126.882 75.2458 125.805 76.4433 124.548 76.9777L124.501 76.9974C123.322 77.4812 121.232 78.0275 120.211 76.9785C119.362 76.1053 120.488 74.5398 121.544 75.2551C122.086 75.6226 123.228 75.3518 123.833 75.177L123.871 75.1659C124.524 74.9744 125.394 74.3613 125.124 73.5589C124.885 72.849 123.868 72.7193 123.232 72.6962C122.281 72.6623 121.356 72.8825 120.414 72.9542C120.265 72.9656 120.219 72.75 120.34 72.6809ZM127.583 67.6308C129.956 67.5199 131.433 70.106 130.887 72.225C130.792 72.5906 130.383 72.9496 129.987 72.9085L129.887 72.8993C129.837 72.8945 129.786 72.8881 129.739 72.8752C129.364 72.7714 129.027 72.3815 129.054 71.9773L129.061 71.8595C129.117 70.8585 129.008 69.7052 127.816 69.4628C126.805 69.2572 126.241 70.2283 126.229 71.1222C126.226 71.2809 126.048 71.3917 125.907 71.3064C125.176 70.8625 125.05 69.9796 125.329 69.2192C125.683 68.2558 126.568 67.6781 127.583 67.6308ZM109.971 68.1855C111.698 67.6104 113.561 68.5292 114.398 70.0531C114.691 70.1378 114.984 70.3635 114.943 70.7091C114.884 71.2062 114.796 71.5196 114.45 71.8966C113.91 72.4864 112.898 72.1848 112.674 71.4588L112.664 71.4261C112.409 70.4876 111.374 69.8685 110.431 70.197C109.33 70.5806 109.362 71.7416 108.589 72.4179C108.498 72.4974 108.389 72.5101 108.281 72.4576C107.46 72.0619 107.607 70.8707 107.9 70.189C108.284 69.2944 109.029 68.4987 109.971 68.1855ZM107.618 62.9512C109.018 61.526 112.667 60.1469 113.625 62.7787C113.807 63.28 113.419 63.9559 112.896 64.0599C112.04 64.2299 111.28 63.8589 110.429 63.9255C109.741 63.9796 109.022 64.2093 108.472 64.6351C106.947 65.8142 106.611 67.8087 105.549 69.3095C105.497 69.3826 105.396 69.3519 105.387 69.2657C105.145 67.0807 106.085 64.5121 107.618 62.9512ZM125.871 61.5482C126.8 61.2209 127.851 61.2489 128.785 61.5393C129.726 61.8319 130.589 62.3877 131.254 63.1138C131.556 63.4434 131.835 63.8072 132.059 64.1944C132.178 64.3996 132.303 64.8235 132.438 65.0759C133.17 65.4975 133.483 66.4581 132.828 67.1415L132.798 67.1715L132.711 67.2582C132.359 67.6061 131.828 67.7568 131.347 67.6179C130.271 67.3073 130.141 66.4619 129.768 65.5645C129.522 64.9718 129.101 64.4474 128.59 64.0621C127.383 63.152 125.403 62.8621 123.95 63.291C123.872 63.3138 123.781 63.2154 123.837 63.1441C124.112 62.788 124.271 62.4957 124.64 62.2085C125.014 61.917 125.422 61.7064 125.871 61.5482Z" fill="#2C353E"/>
<path fill-rule="evenodd" clip-rule="evenodd" d="M134.579 73.8503C133.62 75.1365 131.841 75.5462 130.201 75.4047C126.662 75.0648 125.549 71.0545 125.433 67.9375C127.805 68.6036 125.232 63.886 133.343 63.3673C136.202 63.1295 135.414 64.8528 136.677 66.1119C136.651 68.7543 136.21 71.6256 134.579 73.8503M117.726 70.8138C115.637 80.5766 104.198 78.2544 102.997 69.4539C104.106 68.6723 103.814 66.7424 105.193 66.0432C107.377 64.6501 110.108 64.7097 112.589 64.7424C115.76 64.9599 116.664 66.2709 118.293 67.7012C118.215 68.6565 117.989 69.7887 117.726 70.8138M139.111 61.7505C138.993 61.731 138.876 61.7126 138.759 61.6954C138.667 61.6435 138.559 61.6036 138.434 61.5795C138.149 61.5072 137.865 61.4584 137.582 61.4321C133.516 60.519 124.11 61.8155 123.722 65.2779C122.427 65.7092 121.307 65.323 119.807 65.3614C118.664 60.5968 98.9172 61.2692 97.9674 64.1418C97.9639 64.1408 97.9603 64.14 97.9566 64.1388C97.0441 63.857 95.6988 63.9249 94.6543 63.8803C92.4242 63.8336 90.1914 64.032 88.0094 64.5014C83.9234 65.1495 78.3469 65.9081 81.1887 71.0003C81.1892 71.0011 81.1897 71.0021 81.1904 71.003L81.1908 71.0025C81.6806 71.5035 82.5117 71.1001 82.5426 70.4219C81.5872 68.0095 83.7451 67.7198 85.4055 67.0266C89.5368 65.5454 93.7429 65.34 98.0157 65.7982C98.3372 66.1759 98.825 66.5053 99.3405 66.6776C102.197 67.1509 100.692 69.2658 102.498 69.5734C102.166 76.9456 111.135 80.9697 116.331 76.1235C118.406 74.0991 118.901 71.1001 119.382 68.3969C119.636 68.3399 119.798 68.2011 119.892 68.0173C120.504 67.4078 120.888 66.845 122.098 66.6776C123.308 66.5104 124.239 66.8461 124.365 66.9489C124.396 67.0128 124.431 67.0768 124.47 67.1408C124.525 67.2362 124.601 67.3123 124.686 67.3722C123.492 74.7134 129.202 79.3561 134.968 75.5486C137.473 73.1969 138.002 69.5965 138.106 66.383C138.446 66.1785 138.661 65.7821 138.544 65.2839C138.382 64.597 138.761 64.0023 139.366 63.7037C140.153 63.3159 140.013 61.8996 139.111 61.7505" fill="#2C353E"/>
</svg>
